<?xml version="1.0" encoding="UTF-8"?>
<svg width="800px" height="800px" fill="#000000" version="1.1" viewBox="0 0 56 56"
    xml:space="preserve" xmlns="http://www.w3.org/2000/svg">
    <rect x="0" y="0" width="100%" height="100%" ry="8.5" fill="#0f232d" style="paint-order:stroke fill markers"/>
    <g transform="matrix(.84728 0 0 .84728 4.2761 4.3118)">
        <path d="m14.47 16.971h26.305l10.946 13.045 0.39764 13.304h-49.438l2.1752-13.245z" fill="#154358" stroke-linecap="round" stroke-miterlimit="10" stroke-width="1.9307" style="paint-order:stroke fill markers"/>
        <path d="m7.7148 56h40.57c4.8984 0 7.3594-2.4375 7.3594-7.2656v-12.938c0-2.1094-0.3518-3.0938-1.3358-4.4531l-8.1096-10.945c-2.5546-3.4921-3.961-4.4062-8.1094-4.4062h-20.18c-4.1484 0-5.5547 0.9141-8.1094 4.4062l-8.1094 10.945c-0.9843 1.3593-1.3359 2.3437-1.3359 4.4531v12.938c0 4.8515 2.4844 7.2656 7.3594 7.2656zm20.273-13.57c-3.5156 0-5.7656-3.0469-5.7656-5.9297v-0.0703c0-1.0547-0.6328-2.0391-1.9219-2.0391h-14.953c-0.7735 0-0.9375-0.6562-0.5625-1.1718l8.6719-11.906c1.1015-1.5 2.4843-2.039 4.1953-2.039h20.695c1.7109 0 3.0937 0.539 4.1954 2.039l8.6482 11.906c0.3753 0.5156 0.2112 1.1718-0.5621 1.1718h-14.93c-1.2891 0-1.9219 0.9844-1.9219 2.0391v0.0703c0 2.8828-2.25 5.9297-5.7891 5.9297z" fill="#2b86b0"/>
        <g transform="matrix(.082308 0 0 .082308 8.1686 -.35769)" fill="#98e300" stroke="#98e300" stroke-width="10.038" style="paint-order:normal">
            <path d="m403.7 240.94c43.272-46.07 62.627-91.495 45.902-120.46-13.11-22.706-48.114-32.239-96.132-26.191-10.017 1.271-20.47 3.32-31.124 5.805-18.258-60.567-47.934-100.08-81.401-100.08-33.464 0-63.139 39.506-81.4 100.06-21.255-5.015-41.291-7.728-59.141-7.728-33.941 0-57.496 9.732-68.125 28.14-16.725 28.97 2.631 74.397 45.905 120.47-43.275 46.072-62.63 91.501-45.905 120.47 10.687 18.515 34.389 28.159 68.077 28.159 9.893 0 20.65-0.831 32.187-2.515 8.735-1.275 17.794-3.153 26.977-5.31 18.26 60.597 47.944 100.14 81.423 100.14 33.467 0 63.143-39.517 81.402-100.08 10.655 2.485 21.109 4.536 31.128 5.807 9.481 1.202 18.452 1.79 26.853 1.79 34.11 0 58.754-9.75 69.275-27.982 16.726-28.978-2.628-74.408-45.901-120.48zm-48.336-131.71c8.908-1.129 17.309-1.677 25.107-1.677 28.147 0 48.426 7.184 56.088 20.456 12.096 20.951-3.841 59.984-43.329 102.22-15.77-15.487-34.148-30.899-54.662-45.654-2.516-25.067-6.655-48.623-12.158-69.971 9.911-2.288 19.64-4.195 28.954-5.376zm-15.145 95.203c15.989 12.103 30.205 24.383 42.547 36.512-12.341 12.128-26.558 24.41-42.547 36.513 0.758-11.909 1.152-24.099 1.152-36.508 0-12.411-0.394-24.605-1.152-36.517zm-18.021-31.213c-9.934-6.609-20.294-13.045-31.039-19.247-10.671-6.16-21.458-11.875-32.261-17.212 18.06-7.615 35.816-13.735 52.995-18.48 4.313 16.708 7.824 35.106 10.305 54.939zm-81.253-158.15c24.203 0 50.052 33.357 66.886 88.728-21.614 5.978-44.099 14.215-66.835 24.475-22.763-10.239-45.356-18.461-66.944-24.472 16.836-55.373 42.687-88.731 66.893-88.731zm-70.947 103.19c17.104 4.76 34.9 10.967 52.962 18.563-10.766 5.339-21.536 10.973-32.236 17.152-10.745 6.203-21.105 12.64-31.039 19.25 2.481-19.844 5.996-38.251 10.313-54.965zm-39.627 253.91c-43.677 6.379-74.673-0.291-85.048-18.272-12.097-20.953 3.841-59.991 43.331-102.23 15.77 15.486 34.147 30.898 54.659 45.655 2.512 25.038 6.645 48.569 12.138 69.898-8.585 2.016-17.025 3.774-25.08 4.95zm11.292-94.706c-15.989-12.104-30.203-24.382-42.545-36.511 12.341-12.128 26.556-24.408 42.546-36.511-0.758 11.91-1.153 24.104-1.153 36.514 0 12.409 0.394 24.6 1.152 36.508zm1.651-92.879c-20.513 14.755-38.891 30.167-54.66 45.655-39.489-42.24-55.427-81.274-43.33-102.22 9.831-17.033 35.378-20.61 55.081-20.61 16.598 0 35.25 2.499 55.089 7.135-5.514 21.368-9.661 44.949-12.18 70.045zm16.37 124.09c9.934 6.61 20.294 13.047 31.04 19.251 10.659 6.155 21.386 11.768 32.11 17.09-17.951 7.518-35.739 13.73-52.868 18.512-4.303-16.684-7.806-35.054-10.282-54.853zm81.261 158.16c-24.209 0-50.062-33.366-66.899-88.751 21.675-6.012 44.192-14.296 66.852-24.498 22.77 10.281 45.289 18.534 66.933 24.52-16.834 55.373-42.682 88.729-66.886 88.729zm70.948-103.21c-17.199-4.751-34.976-10.883-53.057-18.51 10.818-5.351 21.623-11.009 32.322-17.186 10.746-6.204 21.107-12.641 31.04-19.251-2.479 19.837-5.992 38.236-10.305 54.947zm12.389-74.555c-12.62 8.81-26.183 17.461-40.654 25.816-14.045 8.11-28.422 15.49-42.836 22.175-14.17-6.629-28.406-14.014-42.539-22.175-14.471-8.355-28.034-17.006-40.654-25.816-1.32-15.334-2.03-31.405-2.03-48.114 0-16.711 0.71-32.785 2.031-48.12 12.619-8.809 26.182-17.459 40.653-25.813 14.161-8.178 28.427-15.574 42.626-22.213 14.279 6.65 28.604 14.048 42.749 22.213 14.471 8.353 28.033 17.002 40.653 25.811 1.32 15.337 2.031 31.41 2.031 48.123 0 16.707-0.71 32.779-2.03 48.113zm112.28 64.826c-9.791 16.96-40.151 23.99-81.191 18.78-9.315-1.181-19.044-3.089-28.957-5.378 5.504-21.35 9.644-44.909 12.159-69.978 20.514-14.757 38.892-30.169 54.661-45.657 39.488 42.24 55.425 81.279 43.328 102.23z" style="paint-order:normal"/>
            <path d="m240.94 187.67c-29.378 0-53.279 23.901-53.279 53.275 0 29.375 23.901 53.276 53.279 53.276 29.375 0 53.272-23.901 53.272-53.276 0-29.374-23.897-53.275-53.272-53.275z" style="paint-order:normal"/>
        </g>
        <path d="m1.6913 31.344c-0.9843 1.3593-1.336 2.3437-1.336 4.4531v12.937c0 4.8515 2.4844 7.2656 7.3594 7.2656h40.57c4.8984 0 7.3594-2.4375 7.3594-7.2656v-12.937c0-2.1094-0.35188-3.0938-1.3359-4.4531l-3.1176 1.875c0.3753 0.5156 0.21125 1.1718-0.56205 1.1718h-14.93c-1.2891 0-1.9219 0.98432-1.9219 2.039v0.07027c0 2.8828-2.25 5.9298-5.7891 5.9298-3.5156 0-5.7657-3.047-5.7657-5.9298v-0.07027c0-1.0547-0.63276-2.039-1.9219-2.039h-14.953c-0.7735 0-0.93746-0.65622-0.56246-1.1718z" fill="#2b86b0"/>
    </g>
</svg>